<?xml version="1.0" encoding="utf-8"?>
<!-- Generator: Adobe Illustrator 24.0.2, SVG Export Plug-In . SVG Version: 6.00 Build 0)  -->
<svg version="1.1" id="Layer_1" xmlns="http://www.w3.org/2000/svg" xmlns:xlink="http://www.w3.org/1999/xlink" x="0px" y="0px"
	 viewBox="0 0 162.1 150" style="enable-background:new 0 0 162.1 150;" xml:space="preserve">
<style type="text/css">
	.st0{fill:none;}
	.st1{fill:#FFFFFF;}
</style>
<title>FOO</title>
<rect class="st0" width="162.1" height="150"/>
<path class="st1" d="M95,33.2h-0.5v0H28v85.4h16.9V85.2h7c3.6,21,20.8,34.9,43.2,34.9c25.2,0,43.9-17.7,43.9-43.4
	S120.3,33.2,95,33.2z M95,104.5c-10.8,0-19.8-5.3-24.2-14.3c-2.2-0.6-4.2-1.8-5.8-3.4c-2.4-2.7-3.7-6.3-3.6-10
	c0-2.1,0.4-4.3,1.2-6.3l-7.9,1.6c-0.1,0.4-0.2,0.8-0.5,1.1v-3.8h-9.3V48.9H95c15.4,0,27.1,10.8,27.1,27.9S110.4,104.5,95,104.5z"/>
<path class="st1" d="M87.1,56.3c3.5,1.9,6.5,4.7,8.5,8.2c2.1,3.7,3.1,7.9,3,12.1c0.1,4.3-0.9,8.5-3,12.3c-2,3.5-4.9,6.4-8.5,8.3
	c-3.9,2-8.2,3-12.6,2.9c-4.4,0.1-8.8-0.9-12.7-2.9c-3.6-1.9-6.5-4.7-8.5-8.2c-2.1-3.7-3.1-8-3-12.3c-0.1-4.3,1-8.5,3-12.2
	c2-3.5,5-6.3,8.5-8.2c3.9-2,8.3-3,12.7-2.9C78.9,53.3,83.2,54.3,87.1,56.3z M65.1,66.8c-2.5,2.7-3.8,6.3-3.6,10
	c-0.1,3.7,1.1,7.3,3.6,10c2.4,2.6,5.9,4,9.4,3.9c3.5,0.1,6.9-1.3,9.3-3.9c2.4-2.7,3.7-6.3,3.6-10c0.2-3.7-1.1-7.3-3.6-10
	c-2.4-2.6-5.7-4-9.3-3.9C71,62.7,67.5,64.1,65.1,66.8z"/>
</svg>
